<?xml version="1.0" encoding="UTF-8"?>
<svg id="Layer_1" data-name="Layer 1" xmlns="http://www.w3.org/2000/svg" viewBox="0 0 225 300">
  <defs>
    <style>
      .cls-1 {
        fill: none;
        isolation: isolate;
      }

      .cls-2 {
        fill: #010101;
      }
    </style>
  </defs>
  <g class="cls-1">
    <path class="cls-2" d="m63.05,157.92c0,.95-.42,1.75-.87,1.75h-7.07c-.47,0-.87-.8-.87-1.75v-3.34c0-1.18.28-1.75.87-1.75s.85.8.85,2.47v.87h5.34v-8.66h-6.16c-.47,0-.87-.76-.87-1.75v-11.78c0-.91.4-1.75.87-1.75h7.03c.46,0,.87.84.87,1.75v2.74c0,1.14-.3,1.75-.87,1.75s-.87-.61-.87-1.75v-.99h-5.28v8.28h6.15c.46,0,.87.87.87,1.75v12.16Z"/>
    <path class="cls-2" d="m65.09,139.84h7.09c1.23,0,1.84,1.22,1.84,3.57v12.58c0,2.36-.72,3.69-1.86,3.69h-5.32v5.89c0,1.18-.28,1.75-.87,1.75s-.87-.57-.87-1.75v-25.72Zm7.33,16.34v-12.84h-5.59v12.84h5.59Z"/>
    <path class="cls-2" d="m77.83,151.16v5.02h5.34v-1.98c0-1.14.28-1.71.87-1.71s.87.57.87,1.71v3.72c0,.95-.42,1.75-.87,1.75h-7.07c-.47,0-.87-.8-.87-1.75v-16.34c0-.95.4-1.75.87-1.75h7.07c.46,0,.87.8.87,1.75v7.83c0,.95-.42,1.75-.87,1.75h-6.21Zm5.34-3.5v-4.33h-5.34v4.33h5.34Z"/>
    <path class="cls-2" d="m94.97,139.84c.46,0,.87.8.87,1.75v3.42c0,1.14-.3,1.75-.87,1.75s-.87-.61-.87-1.75v-1.67h-5.34v12.84h5.34v-1.98c0-1.14.28-1.71.87-1.71s.87.57.87,1.71v3.72c0,.95-.42,1.75-.87,1.75h-7.07c-.47,0-.87-.8-.87-1.75v-16.34c0-.95.4-1.75.87-1.75h7.07Z"/>
    <path class="cls-2" d="m97.9,139.84h7.09c1.23,0,1.84,1.22,1.84,3.57v12.58c0,2.36-.72,3.69-1.86,3.69h-5.32v5.89c0,1.18-.28,1.75-.87,1.75s-.87-.57-.87-1.75v-25.72Zm7.33,16.34v-12.84h-5.59v12.84h5.59Z"/>
    <path class="cls-2" d="m116.17,139.84c.93,0,1.56,1.29,1.56,3.12v13.64c0,1.71-.67,3.08-1.56,3.08h-5.72c-.89,0-1.54-1.29-1.54-3.08v-13.64c0-1.56.72-3.12,1.54-3.12h5.72Zm-.19,16.34v-12.84h-5.34v12.84h5.34Z"/>
    <path class="cls-2" d="m123.11,132.24c.91,0,1.54,1.25,1.54,3.04v20.9h2.09c.59,0,.87.57.87,1.75s-.29,1.75-.87,1.75h-5.72c-.59,0-.87-.57-.87-1.75s.28-1.75.87-1.75h1.88v-20.44h-1.2c-.57,0-.87-.61-.87-1.75s.3-1.75.87-1.75h1.41Z"/>
    <path class="cls-2" d="m138.03,132.24c.57,0,.86.57.86,1.75s-.29,1.75-.86,1.75h-6.29v7.86h4.01c.59,0,.87.57.87,1.75s-.29,1.75-.87,1.75h-4.01v10.83c0,1.18-.29,1.75-.87,1.75s-.87-.57-.87-1.75v-23.94c0-.91.4-1.75.87-1.75h7.16Z"/>
    <path class="cls-2" d="m143.9,132.24c.91,0,1.54,1.25,1.54,3.04v20.9h2.09c.59,0,.87.57.87,1.75s-.29,1.75-.87,1.75h-5.72c-.59,0-.87-.57-.87-1.75s.28-1.75.87-1.75h1.88v-20.44h-1.2c-.57,0-.87-.61-.87-1.75s.3-1.75.87-1.75h1.41Z"/>
    <path class="cls-2" d="m158.09,139.84c.93,0,1.56,1.29,1.56,3.12v13.64c0,1.71-.67,3.08-1.56,3.08h-5.72c-.89,0-1.54-1.29-1.54-3.08v-13.64c0-1.56.72-3.12,1.54-3.12h5.72Zm-.19,16.34v-12.84h-5.34v12.84h5.34Z"/>
    <path class="cls-2" d="m163.28,141.59v13.79c0,.57.08.8.27.8h1.62c.23,0,.34-.23.34-.57v-6.8c0-1.18.29-1.75.87-1.75s.85.57.85,1.75v6.8c0,.34.1.57.29.57h1.69c.15,0,.25-.23.25-.57v-14.02c0-1.14.29-1.75.87-1.75s.87.61.87,1.75v14.02c0,2.36-.8,4.07-2,4.07h-2.05c-.32,0-.61-.27-.84-.72-.23.46-.44.72-.72.72h-2.05c-1.14,0-2.01-2.05-2.01-4.29v-13.79c0-1.14.29-1.75.87-1.75s.87.61.87,1.75Z"/>
  </g>
  <g>
    <path class="cls-2" d="m93.91,91.86c-2.64,0-5.18-2.13-13.09-22.57-2.95-7.62-5.67-15.32-6.9-18.88h-24v-6h28.29l.69,2.03c5.15,15.15,11.84,32.38,15.14,38.07,3.32-5.67,10.02-22.91,15.18-38.07C123.89,3.28,127.79,3.07,129.89,2.96c2.74-.15,5.18,1.35,13.39,22.56,2.95,7.62,5.67,15.32,6.9,18.88h24.3v6h-28.59l-.69-2.03c-5.15-15.15-11.84-32.38-15.14-38.07-3.32,5.67-10.02,22.91-15.18,38.07-14.68,43.16-18.59,43.37-20.68,43.48-.1,0-.2,0-.3,0Z"/>
    <path class="cls-2" d="m112,297.05c-1.95,0-3.62-1.03-4.48-2.75-1.98-3.96-2.75-7.82-3.5-11.55-.48-2.37-.92-4.62-1.66-6.84l-.04-.12c-5.35-18.71-23.85-36.72-45.58-34.51l-.61-5.97c11.41-1.17,23.08,2.46,32.85,10.22,9.11,7.24,15.89,17.38,19.1,28.54.85,2.56,1.35,5.07,1.83,7.5.63,3.17,1.23,6.17,2.54,9.11.92-3.26,1.64-6.38,2.33-9.4.75-3.23,1.52-6.58,2.54-10.15l.08-.27.12-.25c.44-.89.93-2.1,1.4-3.27.51-1.29,1.05-2.62,1.6-3.73,8.66-16.08,22.21-26.75,36.29-28.63l.15-.02c4.12-.34,8.24-.34,12.21-.34,7.77,0,15.11,0,21.91-2.45,8.69-3.89,15.97-10.51,20.5-18.67,11.13-19.48,6.96-42.9-10.37-58.3-6.86-6-15.9-9.24-26.12-9.35l.06-6c11.67.13,22.05,3.88,30.02,10.85,19.52,17.35,24.19,43.77,11.63,65.75-5.16,9.29-13.47,16.85-23.39,21.25l-.19.08c-7.83,2.85-16.08,2.85-24.06,2.85-3.83,0-7.79,0-11.64.32-12.15,1.65-23.99,11.16-31.68,25.44-.4.81-.89,2.02-1.36,3.19s-.96,2.41-1.47,3.47c-.94,3.33-1.68,6.51-2.39,9.59-.75,3.23-1.52,6.58-2.54,10.15l-.08.27-.12.25c-1.1,2.21-3.52,3.75-5.88,3.75Z"/>
    <path class="cls-2" d="m223.21,95.13h-6c0-24.66-19.1-44.72-42.57-44.72v-6c26.78,0,48.57,22.75,48.57,50.72Z"/>
    <path class="cls-2" d="m49.26,145.84c-20.28-.22-38.46-13.77-45.26-33.72-6.79-19.94-.87-42.44,14.71-55.99,8.7-7.56,19.73-11.73,31.06-11.73v6c-9.88,0-19.52,3.64-27.12,10.25-13.77,11.97-18.98,31.88-12.97,49.53,5.88,17.27,22.18,29.47,39.64,29.66l-.07,6Z"/>
    <path class="cls-2" d="m64.63,241.12h-16.72c-25.75,0-46.7-22.68-46.7-50.56h6c0,24.57,18.26,44.56,40.7,44.56h16.72v6Z"/>
    <rect class="cls-2" x="47.82" y="44.43" width="3.94" height="6" transform="translate(-.48 .5) rotate(-.58)"/>
    <rect class="cls-2" x="172.67" y="44.41" width="3.26" height="6"/>
    <path class="cls-2" d="m68.65,48.45v-2s6,0,6,0v2s-6,0-6,0Zm9,0v-2s6,0,6,0v2s-6,0-6,0Zm9,0v-2s6,0,6,0v2s-6,0-6,0Zm9,0v-2s6,0,6,0v2s-6,0-6,0Zm9,0v-2s6,0,6,0v2s-6,0-6,0Zm9,0v-2s6,0,6,0v2h-6Zm9,0v-2h6s0,2,0,2h-6Zm9,0v-2h6s0,2,0,2h-6Zm9,0v-2h6s0,2,0,2h-6Zm9,0v-2h6s0,2,0,2h-6Zm9,0v-2h2.26s0,2,0,2h-2.26Z"/>
    <path class="cls-2" d="m166.41,239.1h-4.4v-2h4.4v2Zm-7.4,0h-6v-2h6v2Zm-9,0h-6v-2h6v2Zm-9,0h-6v-2h6v2Zm-9,0h-6v-2h6v2Zm-9,0h-6v-2h6v2Zm-9,0h-6v-2h6v2Zm-9,0h-6v-2h6v2Zm-9,0h-6v-2h6v2Zm-9,0h-6v-2h6v2Zm-9,0h-6v-2h6v2Zm-9,0h-6v-2h6v2Zm-9,0h-6v-2h6v2Z"/>
  </g>
</svg>